<?xml version="1.0" encoding="UTF-8" standalone="no"?>
<svg width="50px" height="50px" viewBox="0 0 50 50" version="1.1" xmlns="http://www.w3.org/2000/svg" xmlns:xlink="http://www.w3.org/1999/xlink">
    <!-- Generator: Sketch 3.7.2 (28276) - http://www.bohemiancoding.com/sketch -->
    <title>file_on</title>
    <desc>Created with Sketch.</desc>
    <defs>
        <path d="M2.07142857,0 C0.932142857,0 0,0.947368421 0,2.10526316 L0,37.8947368 C0,39.0526316 0.932142857,40 2.07142857,40 L26.9285714,40 C28.0678571,40 29,39.0526316 29,37.8947368 L29,11 L20.7142857,8.42105263 L18,0 L2.07142857,0 Z" id="path-1"></path>
        <mask id="mask-2" maskContentUnits="userSpaceOnUse" maskUnits="objectBoundingBox" x="0" y="0" width="29" height="40" fill="white">
            <use xlink:href="#path-1"></use>
        </mask>
    </defs>
    <g id="Page-1" stroke="none" stroke-width="1" fill="none" fill-rule="evenodd">
        <g id="Desktop" transform="translate(-1092.000000, -906.000000)">
            <g id="file" transform="translate(1092.000000, 906.000000)">
                <g id="icon-large-text-document" transform="translate(10.000000, 5.000000)">
                    <g id="Group">
                        <use id="Shape" stroke="#777677" mask="url(#mask-2)" stroke-width="2" fill="#FFFFFF" xlink:href="#path-1"></use>
                        <path d="M19.6456,12 C18.7381,12 18,11.2597 18,10.35 L18,1 L18.55,1 C18.6963,1 18.836,1.0572 18.9394,1.1606 L28.8394,11.0606 C28.9417,11.1651 29,11.3059 29,11.45 L29,12 L19.6456,12 L19.6456,12 Z" id="Shape" fill="#CEE0F3"></path>
                        <path d="M18,1 L28,11 L19.1066667,11 C18.4955556,11 18,10.5 18,9.88888889 L18,1 L18,1 Z M18.0909091,0 L17,0 L17,9.81818182 C17,11.0181818 17.9796364,12 19.1774545,12 L29,12 L29,10.9090909 C29,10.62 28.8854545,10.3418182 28.6803636,10.1389091 L18.8621818,0.317454545 C18.6581818,0.115636364 18.38,0 18.0909091,0 L18.0909091,0 Z" id="Shape" fill="#777677"></path>
                        <path d="M5,16 L24,16 L24,17 L5,17 L5,16 Z M5,20 L24,20 L24,21 L5,21 L5,20 Z M5,24 L24,24 L24,25 L5,25 L5,24 Z M5,32 L24,32 L24,33 L5,33 L5,32 Z M5,28 L24,28 L24,29 L5,29 L5,28 Z" id="Shape" fill="#BFC0BF"></path>
                    </g>
                </g>
            </g>
        </g>
    </g>
</svg>