<?xml version="1.0" encoding="UTF-8" standalone="no"?>
<svg width="50px" height="50px" viewBox="0 0 50 50" version="1.1" xmlns="http://www.w3.org/2000/svg" xmlns:xlink="http://www.w3.org/1999/xlink">
    <!-- Generator: Sketch 3.7.2 (28276) - http://www.bohemiancoding.com/sketch -->
    <title>image_on</title>
    <desc>Created with Sketch.</desc>
    <defs>
        <path d="M37.1428571,0 L2.85714286,0 C1.28571429,0 0,1.28571429 0,2.85714286 L0,37.1428571 C0,38.7142857 1.28571429,40 2.85714286,40 L37.1428571,40 C38.7142857,40 40,38.7142857 40,37.1428571 L40,2.85714286 C40,1.28571429 38.7142857,0 37.1428571,0 L37.1428571,0 Z" id="path-1"></path>
        <mask id="mask-2" maskContentUnits="userSpaceOnUse" maskUnits="objectBoundingBox" x="0" y="0" width="40" height="40" fill="white">
            <use xlink:href="#path-1"></use>
        </mask>
        <path d="M23,20 C23,21.656 24.344,23 26,23 C27.656,23 29,21.656 29,20 C29,18.344 27.656,17 26,17 C24.344,17 23,18.344 23,20 Z" id="path-3"></path>
        <mask id="mask-4" maskContentUnits="userSpaceOnUse" maskUnits="objectBoundingBox" x="0" y="0" width="6" height="6" fill="white">
            <use xlink:href="#path-3"></use>
        </mask>
        <path d="M0,36.3846154 L0,37.9230769 C0,39.6153846 1.28571429,41 2.85714286,41 L37.1428571,41 C38.7142857,41 40,39.6153846 40,37.9230769 L40,34.8461538 L32.8571429,27.1538462 L25.7142857,34.8461538 L12.8571429,21 L0,36.3846154 Z" id="path-5"></path>
        <mask id="mask-6" maskContentUnits="userSpaceOnUse" maskUnits="objectBoundingBox" x="0" y="0" width="40" height="20" fill="white">
            <use xlink:href="#path-5"></use>
        </mask>
    </defs>
    <g id="Page-1" stroke="none" stroke-width="1" fill="none" fill-rule="evenodd">
        <g id="Desktop" transform="translate(-251.000000, -1299.000000)">
            <g id="image" transform="translate(251.000000, 1299.000000)">
                <g id="icon-large-image" transform="translate(5.000000, 5.000000)">
                    <g id="Group">
                        <path d="M3.16666667,40 C1.97211111,40 1,39.0278889 1,37.8333333 L1,3.16666667 C1,1.97211111 1.97211111,1 3.16666667,1 L37.8333333,1 C39.0278889,1 40,1.97211111 40,3.16666667 L40,37.8333333 C40,39.0278889 39.0278889,40 37.8333333,40 L3.16666667,40 L3.16666667,40 Z" id="Shape" fill="#FFFFFF"></path>
                        <use id="Shape" stroke="#777677" mask="url(#mask-2)" stroke-width="2" fill="#FFFFFF" xlink:href="#path-1"></use>
                        <use id="Shape" stroke="#777677" mask="url(#mask-4)" stroke-width="2" fill="#FFFFFF" xlink:href="#path-3"></use>
                        <use id="Shape" stroke="#777677" mask="url(#mask-6)" stroke-width="2" fill="#D7ECDC" xlink:href="#path-5"></use>
                    </g>
                </g>
            </g>
        </g>
    </g>
</svg>